<svg width="128" height="128" viewBox="0 0 128 128" fill="none" xmlns="http://www.w3.org/2000/svg">
<rect width="128" height="128" rx="18" fill="black"/>
<path fill-rule="evenodd" clip-rule="evenodd" d="M29.5508 74.9052C30.6363 75.4222 31.7994 75.6806 33.04 75.6806C34.3323 75.6806 35.4954 75.4222 36.5292 74.9052C37.5631 74.3366 38.08 73.5095 38.08 72.424V38.6172L46.9969 55.288C47.4622 56.0634 47.9791 56.6062 48.5477 56.9163C49.168 57.2265 49.7625 57.3815 50.3311 57.3815C50.9514 57.3815 51.5717 57.2265 52.192 56.9163C52.8123 56.5545 53.3551 56.0117 53.8203 55.288L62.8148 39.16V72.424C62.8148 72.6754 62.8425 72.9129 62.8979 73.1366V105.58C62.8979 106.659 63.4121 107.482 64.4404 108.048C65.5201 108.562 66.677 108.819 67.9109 108.819C69.1963 108.819 70.3532 108.562 71.3815 108.048C72.4098 107.482 72.924 106.659 72.924 105.58V83.5225H90.2767V105.58C90.2767 106.659 90.7909 107.482 91.8192 108.048C92.8989 108.562 94.0557 108.819 95.2897 108.819C96.5751 108.819 97.7319 108.562 98.7603 108.048C99.7886 107.482 100.303 106.659 100.303 105.58V55.6039C100.303 54.4727 99.7886 53.6758 98.7603 53.2131C97.7319 52.6989 96.5751 52.4418 95.2897 52.4418C94.0557 52.4418 92.8989 52.6989 91.8192 53.2131C90.7909 53.6758 90.2767 54.4727 90.2767 55.6039V75.6559H72.924V55.6039C72.924 55.4483 72.9142 55.299 72.8948 55.156V24.04C72.8948 22.1791 72.3778 20.8868 71.344 20.1631C70.3102 19.3877 69.1471 19 67.8548 19C66.6658 19 65.632 19.1292 64.7532 19.3877C63.8745 19.6462 63.0732 20.1631 62.3495 20.9385C61.6775 21.7138 60.8763 22.8511 59.9458 24.3501L50.4862 41.7188L40.9489 24.3501C40.1218 22.8511 39.3206 21.7138 38.5452 20.9385C37.8215 20.1631 37.0203 19.6462 36.1415 19.3877C35.3145 19.1292 34.2806 19 33.04 19C31.7994 19 30.6363 19.3877 29.5508 20.1631C28.5169 20.8868 28 22.1791 28 24.04V72.424C28 73.5095 28.5169 74.3366 29.5508 74.9052Z" fill="#F1F1F1"/>
</svg>
